<?xml version="1.0" encoding="utf-8"?>
<!-- Generator: Adobe Illustrator 18.0.0, SVG Export Plug-In . SVG Version: 6.00 Build 0)  -->
<!DOCTYPE svg PUBLIC "-//W3C//DTD SVG 1.1//EN" "http://www.w3.org/Graphics/SVG/1.1/DTD/svg11.dtd">
<svg version="1.1" id="Lager_1" xmlns="http://www.w3.org/2000/svg" xmlns:xlink="http://www.w3.org/1999/xlink" x="0px" y="0px"
	 viewBox="0 0 1931 1501" enable-background="new 0 0 1931 1501" xml:space="preserve">
<rect x="200.7" y="17.5" fill="#FFFFFF" stroke="#000000" stroke-miterlimit="10" width="207.1" height="151.8"/>
<text transform="matrix(1 0 0 1 239.1294 93.6455)" font-family="'MyriadPro-Regular'" font-size="12">MONTGOMERY_MOD_EXP</text>
<line fill="#FFFFFF" stroke="#000000" stroke-miterlimit="10" x1="67.8" y1="42.1" x2="200.7" y2="42.1"/>
<line fill="#FFFFFF" stroke="#000000" stroke-miterlimit="10" x1="67.8" y1="79.1" x2="200.7" y2="79.1"/>
<line fill="#FFFFFF" stroke="#000000" stroke-miterlimit="10" x1="67.8" y1="115.5" x2="200.7" y2="115.5"/>
<line fill="#FFFFFF" stroke="#000000" stroke-miterlimit="10" x1="67.8" y1="149.5" x2="200.7" y2="149.5"/>
<text transform="matrix(1 0 0 1 82.6596 32.4468)" font-family="'MyriadPro-Regular'" font-size="12">X [31:0] [length-1 : 0]</text>
<text transform="matrix(1 0 0 1 82.6596 69.2516)" font-family="'MyriadPro-Regular'" font-size="12">E [31:0] [length-1 : 0]</text>
<text transform="matrix(1 0 0 1 82.6596 106.6771)" font-family="'MyriadPro-Regular'" font-size="12">M [31:0] [length-1 : 0]</text>
<text transform="matrix(1 0 0 1 82.6595 141.8687)" font-family="'MyriadPro-Regular'" font-size="12">Nr [31:0] [length-1 : 0]</text>
<line fill="#FFFFFF" stroke="#000000" stroke-miterlimit="10" x1="407.8" y1="84.4" x2="540.8" y2="84.4"/>
<text transform="matrix(1 0 0 1 422.7068 75.9325)" font-family="'MyriadPro-Regular'" font-size="12">Z [31:0] [length-1 : 0]</text>
<rect x="199.7" y="214.6" fill="#FFFFFF" stroke="#000000" stroke-miterlimit="10" width="207.1" height="147"/>
<text transform="matrix(1 0 0 1 238.1294 285.6455)" font-family="'MyriadPro-Regular'" font-size="12">MONTGOMERY_PROD</text>
<line fill="#FFFFFF" stroke="#000000" stroke-miterlimit="10" x1="66.8" y1="234.1" x2="199.7" y2="234.1"/>
<line fill="#FFFFFF" stroke="#000000" stroke-miterlimit="10" x1="66.8" y1="271.1" x2="199.7" y2="271.1"/>
<line fill="#FFFFFF" stroke="#000000" stroke-miterlimit="10" x1="66.8" y1="307.5" x2="199.7" y2="307.5"/>
<line fill="#FFFFFF" stroke="#000000" stroke-miterlimit="10" x1="66.8" y1="341.5" x2="199.7" y2="341.5"/>
<text transform="matrix(1 0 0 1 81.6596 224.4468)" font-family="'MyriadPro-Regular'" font-size="12">length</text>
<text transform="matrix(1 0 0 1 81.6596 261.2516)" font-family="'MyriadPro-Regular'" font-size="12">A [31:0] [length-1 : 0]</text>
<text transform="matrix(1 0 0 1 81.6596 298.6772)" font-family="'MyriadPro-Regular'" font-size="12">B [31:0] [length-1 : 0]</text>
<text transform="matrix(1 0 0 1 81.6595 333.8687)" font-family="'MyriadPro-Regular'" font-size="12">M [31:0] [length-1 : 0]</text>
<line fill="#FFFFFF" stroke="#000000" stroke-miterlimit="10" x1="406.8" y1="278.4" x2="539.8" y2="278.4"/>
<text transform="matrix(1 0 0 1 421.7068 269.9325)" font-family="'MyriadPro-Regular'" font-size="12">S [31:0] [length-1 : 0]</text>
<line fill="#FFFFFF" stroke="#000000" stroke-miterlimit="10" x1="407.8" y1="113.5" x2="540.8" y2="113.5"/>
<text transform="matrix(1 0 0 1 422.707 104.0601)" font-family="'MyriadPro-Regular'" font-size="12">Z_READY</text>
<line fill="#FFFFFF" stroke="#000000" stroke-miterlimit="10" x1="407.8" y1="306" x2="540.8" y2="306"/>
<text transform="matrix(1 0 0 1 422.707 296.4857)" font-family="'MyriadPro-Regular'" font-size="12">S_READY</text>
<rect x="155.9" y="391.4" fill="#FFFFFF" stroke="#000000" stroke-miterlimit="10" width="287" height="354.1"/>
<rect x="161.8" y="644.2" fill="#FFFFFF" stroke="#000000" stroke-miterlimit="10" width="273.3" height="89.8"/>
<text transform="matrix(1 0 0 1 240.5684 698.7732)" font-family="'MyriadPro-Regular'" font-size="12">MONTGOMERY_PROD</text>
<rect x="161" y="401" fill="#FFFFFF" stroke="#000000" stroke-miterlimit="10" width="273.3" height="140.2"/>
<text transform="matrix(1 0 0 1 240.5678 471.0898)" font-family="'MyriadPro-Regular'" font-size="12">MOD_EXP_Controller</text>
<line stroke="#000000" stroke-width="3" stroke-miterlimit="10" x1="186.3" y1="541.2" x2="186.3" y2="644.2"/>
<line stroke="#000000" stroke-width="3" stroke-miterlimit="10" x1="206.3" y1="541.2" x2="206.3" y2="644.2"/>
<line stroke="#000000" stroke-width="3" stroke-miterlimit="10" x1="226.3" y1="541.2" x2="226.3" y2="644.2"/>
<line stroke="#000000" stroke-width="3" stroke-miterlimit="10" x1="245.3" y1="541.2" x2="245.3" y2="644.2"/>
<line stroke="#000000" stroke-width="3" stroke-miterlimit="10" x1="399.3" y1="541.2" x2="399.3" y2="644.2"/>
<line stroke="#000000" stroke-width="3" stroke-miterlimit="10" x1="381.3" y1="541.2" x2="381.3" y2="644.2"/>
<line fill="#FFFFFF" stroke="#000000" stroke-miterlimit="10" x1="434.3" y1="449.8" x2="567.2" y2="449.8"/>
<text transform="matrix(1 0 0 1 449.1628 441.2498)" font-family="'MyriadPro-Regular'" font-size="12">Z [31:0] [length-1 : 0]</text>
<line fill="#FFFFFF" stroke="#000000" stroke-miterlimit="10" x1="434.3" y1="478.9" x2="567.2" y2="478.9"/>
<text transform="matrix(1 0 0 1 449.1631 469.3774)" font-family="'MyriadPro-Regular'" font-size="12">Z_READY</text>
<line fill="#FFFFFF" stroke="#000000" stroke-miterlimit="10" x1="28" y1="423.1" x2="161" y2="423.1"/>
<line fill="#FFFFFF" stroke="#000000" stroke-miterlimit="10" x1="28" y1="460.1" x2="161" y2="460.1"/>
<line fill="#FFFFFF" stroke="#000000" stroke-miterlimit="10" x1="28" y1="496.4" x2="161" y2="496.4"/>
<line fill="#FFFFFF" stroke="#000000" stroke-miterlimit="10" x1="28" y1="530.5" x2="161" y2="530.5"/>
<text transform="matrix(1 0 0 1 42.9255 413.3812)" font-family="'MyriadPro-Regular'" font-size="12">X [31:0] [length-1 : 0]</text>
<text transform="matrix(1 0 0 1 42.9255 450.186)" font-family="'MyriadPro-Regular'" font-size="12">E [31:0] [length-1 : 0]</text>
<text transform="matrix(1 0 0 1 42.9255 487.6115)" font-family="'MyriadPro-Regular'" font-size="12">M [31:0] [length-1 : 0]</text>
<text transform="matrix(1 0 0 1 42.9254 522.803)" font-family="'MyriadPro-Regular'" font-size="12">Nr [31:0] [length-1 : 0]</text>
<text transform="matrix(1 0 0 1 960.819 36.2516)" font-family="'MyriadPro-Regular'" font-size="12">MOD_EXP_Controller</text>
<line fill="#FFFFFF" stroke="#000000" stroke-miterlimit="10" x1="607.5" y1="235.5" x2="740.5" y2="235.5"/>
<line fill="#FFFFFF" stroke="#000000" stroke-miterlimit="10" x1="607.5" y1="272.5" x2="740.5" y2="272.5"/>
<line fill="#FFFFFF" stroke="#000000" stroke-miterlimit="10" x1="607.5" y1="308.9" x2="740.5" y2="308.9"/>
<line fill="#FFFFFF" stroke="#000000" stroke-miterlimit="10" x1="607.5" y1="342.9" x2="740.5" y2="342.9"/>
<text transform="matrix(1 0 0 1 622.4255 225.8262)" font-family="'MyriadPro-Regular'" font-size="12">X [31:0] [length-1 : 0]</text>
<text transform="matrix(1 0 0 1 622.4255 262.631)" font-family="'MyriadPro-Regular'" font-size="12">E [31:0] [length-1 : 0]</text>
<text transform="matrix(1 0 0 1 622.4255 300.0565)" font-family="'MyriadPro-Regular'" font-size="12">M [31:0] [length-1 : 0]</text>
<text transform="matrix(1 0 0 1 622.4255 335.248)" font-family="'MyriadPro-Regular'" font-size="12">Nr [31:0] [length-1 : 0]</text>
<line fill="#FFFFFF" stroke="#000000" stroke-miterlimit="10" x1="1405" y1="133.3" x2="1538" y2="133.3"/>
<line fill="#FFFFFF" stroke="#000000" stroke-miterlimit="10" x1="1401.7" y1="226.6" x2="1534.7" y2="226.6"/>
<line fill="#FFFFFF" stroke="#000000" stroke-miterlimit="10" x1="1401.7" y1="341.6" x2="1534.7" y2="341.6"/>
<line fill="#FFFFFF" stroke="#000000" stroke-miterlimit="10" x1="1416.6" y1="452.5" x2="1549.6" y2="452.5"/>
<text transform="matrix(1 0 0 1 1416.5851 123.5835)" font-family="'MyriadPro-Regular'" font-size="12">length</text>
<text transform="matrix(1 0 0 1 1416.585 216.7274)" font-family="'MyriadPro-Regular'" font-size="12">A [31:0] [length-1 : 0]</text>
<text transform="matrix(1 0 0 1 1416.5852 332.8188)" font-family="'MyriadPro-Regular'" font-size="12">B [31:0] [length-1 : 0]</text>
<text transform="matrix(1 0 0 1 1431.4786 444.8385)" font-family="'MyriadPro-Regular'" font-size="12">M [31:0] [length-1 : 0]</text>
<rect x="910.3" y="836" fill="none" stroke="#000000" stroke-miterlimit="10" width="125" height="33.5"/>
<text transform="matrix(1 0 0 1 931.3125 858.0197)" font-family="'MyriadPro-Regular'" font-size="12">FIND_N_MINUS_1</text>
<line fill="none" stroke="#000000" stroke-miterlimit="10" x1="718" y1="853.6" x2="910.3" y2="853.6"/>
<rect x="903.9" y="1016.3" fill="none" stroke="#000000" stroke-miterlimit="10" width="128.5" height="33.5"/>
<text transform="matrix(1 0 0 1 914.3075 1038.9576)" font-family="'MyriadPro-Regular'" font-size="12">REG LOOP_COUNTER</text>
<rect x="910.3" y="918.3" fill="none" stroke="#000000" stroke-miterlimit="10" width="125.1" height="34.5"/>
<rect x="827.3" y="1088.1" fill="none" stroke="#000000" stroke-miterlimit="10" width="57" height="33.5"/>
<rect x="827.3" y="1017.3" fill="none" stroke="#000000" stroke-miterlimit="10" width="57" height="50.2"/>
<text transform="matrix(1 0 0 1 843.6833 1037.2043)" font-family="'MyriadPro-Regular'" font-size="12">MUX</text>
<text transform="matrix(1 0 0 1 848.3152 1106.6543)" font-family="'MyriadPro-Regular'" font-size="12">+1</text>
<rect x="1070.9" y="965.3" fill="none" stroke="#000000" stroke-miterlimit="10" width="39.5" height="85.7"/>
<text transform="matrix(1 0 0 1 1087.1005 1016.2591)" font-family="'MyriadPro-Regular'" font-size="12">=</text>
<line fill="none" stroke="#000000" stroke-miterlimit="10" x1="1032.4" y1="1033" x2="1070.9" y2="1033"/>
<line fill="none" stroke="#000000" stroke-miterlimit="10" x1="884.4" y1="1104.9" x2="1048.9" y2="1104.9"/>
<line fill="none" stroke="#000000" stroke-miterlimit="10" x1="1048.9" y1="1033" x2="1048.9" y2="1132"/>
<text transform="matrix(1 0 0 1 770.9216 1029.658)" font-family="'MyriadPro-Regular'" font-size="12">0</text>
<line fill="none" stroke="#000000" stroke-miterlimit="10" x1="781.3" y1="1025.3" x2="827.3" y2="1025.3"/>
<text transform="matrix(1 0 0 1 931.4194 941.0007)" font-family="'MyriadPro-Regular'" font-size="12">REG N_MINUS_1</text>
<line fill="none" stroke="#000000" stroke-miterlimit="10" x1="781.4" y1="1042.4" x2="781.4" y2="1104.9"/>
<line fill="none" stroke="#000000" stroke-miterlimit="10" x1="884.4" y1="1033" x2="903.9" y2="1033"/>
<line fill="none" stroke="#000000" stroke-miterlimit="10" x1="802.3" y1="1078.4" x2="1048.9" y2="1078.4"/>
<line fill="none" stroke="#000000" stroke-miterlimit="10" x1="802.3" y1="1058.5" x2="802.3" y2="1078.4"/>
<line fill="none" stroke="#000000" stroke-miterlimit="10" x1="781.3" y1="1104.9" x2="827.3" y2="1104.9"/>
<line fill="none" stroke="#000000" stroke-miterlimit="10" x1="802.3" y1="1058.5" x2="827.3" y2="1058.5"/>
<line fill="none" stroke="#000000" stroke-miterlimit="10" x1="781.2" y1="1042.4" x2="827.4" y2="1042.4"/>
<line fill="none" stroke="#000000" stroke-miterlimit="10" x1="1014.3" y1="952.5" x2="1014.3" y2="979.5"/>
<line fill="none" stroke="#000000" stroke-miterlimit="10" x1="1014.3" y1="979.5" x2="1070.9" y2="979.5"/>
<rect x="959.3" y="173.7" fill="none" stroke="#000000" stroke-miterlimit="10" width="67" height="33.9"/>
<text transform="matrix(1 0 0 1 978.2946 196.4929)" font-family="'MyriadPro-Regular'" font-size="12">REG P</text>
<line fill="#FFFFFF" stroke="#000000" stroke-miterlimit="10" x1="604" y1="126.7" x2="741" y2="126.7"/>
<text transform="matrix(1.0302 0 0 1 619.3653 118.1879)" font-family="'MyriadPro-Regular'" font-size="12">S [31:0] [length-1 : 0]</text>
<line fill="#FFFFFF" stroke="#000000" stroke-miterlimit="10" x1="605" y1="154.2" x2="738" y2="154.2"/>
<text transform="matrix(1 0 0 1 619.9163 144.7413)" font-family="'MyriadPro-Regular'" font-size="12">S_READY</text>
<rect x="878.5" y="173.4" fill="none" stroke="#000000" stroke-miterlimit="10" width="57" height="34.6"/>
<text transform="matrix(1 0 0 1 899.1805 196.4926)" font-family="'MyriadPro-Regular'" font-size="12">MUX</text>
<line fill="none" stroke="#000000" stroke-miterlimit="10" x1="856.5" y1="217.6" x2="1051.1" y2="217.6"/>
<line fill="none" stroke="#000000" stroke-miterlimit="10" x1="856.5" y1="197.7" x2="856.5" y2="217.6"/>
<line fill="none" stroke="#000000" stroke-miterlimit="10" x1="856.5" y1="197" x2="878.5" y2="197"/>
<line fill="none" stroke="#000000" stroke-miterlimit="10" x1="1026.8" y1="190.7" x2="1051.1" y2="190.7"/>
<line fill="none" stroke="#000000" stroke-miterlimit="10" x1="1051.1" y1="189.4" x2="1051.1" y2="217.6"/>
<line fill="none" stroke="#000000" stroke-miterlimit="10" x1="935.5" y1="190.7" x2="959.3" y2="190.7"/>
<rect x="952.9" y="89" fill="none" stroke="#000000" stroke-miterlimit="10" width="67" height="33.9"/>
<text transform="matrix(1 0 0 1 971.79 111.7385)" font-family="'MyriadPro-Regular'" font-size="12">REG Z</text>
<rect x="872.1" y="88.6" fill="none" stroke="#000000" stroke-miterlimit="10" width="57" height="34.6"/>
<text transform="matrix(1 0 0 1 892.802 111.7382)" font-family="'MyriadPro-Regular'" font-size="12">MUX</text>
<line fill="none" stroke="#000000" stroke-miterlimit="10" x1="850.1" y1="132.8" x2="1044.7" y2="132.8"/>
<line fill="none" stroke="#000000" stroke-miterlimit="10" x1="850.1" y1="112.9" x2="850.1" y2="132.8"/>
<line fill="none" stroke="#000000" stroke-miterlimit="10" x1="850.1" y1="112.3" x2="872.1" y2="112.3"/>
<line fill="none" stroke="#000000" stroke-miterlimit="10" x1="1020.4" y1="105.9" x2="1044.7" y2="105.9"/>
<line fill="none" stroke="#000000" stroke-miterlimit="10" x1="1044.7" y1="104.6" x2="1044.7" y2="132.8"/>
<line fill="none" stroke="#000000" stroke-miterlimit="10" x1="929.1" y1="105.9" x2="952.9" y2="105.9"/>
<rect x="839.9" y="918.2" fill="none" stroke="#000000" stroke-miterlimit="10" width="57" height="35"/>
<text transform="matrix(1 0 0 1 856.3008 937.1488)" font-family="'MyriadPro-Regular'" font-size="12">MUX</text>
<line fill="none" stroke="#000000" stroke-miterlimit="10" x1="856.5" y1="181.3" x2="878" y2="181.3"/>
<text transform="matrix(1 0 0 1 705.0479 858.0199)" font-family="'MyriadPro-Regular'" font-size="12">E</text>
<text transform="matrix(1 0 0 1 845.375 184)" font-family="'MyriadPro-Regular'" font-size="12">S</text>
<line fill="none" stroke="#000000" stroke-miterlimit="10" x1="849.8" y1="95" x2="871.3" y2="95"/>
<text transform="matrix(1 0 0 1 838.714 97.6456)" font-family="'MyriadPro-Regular'" font-size="12">S</text>
<rect x="1344.7" y="188.6" fill="none" stroke="#000000" stroke-miterlimit="10" width="57" height="66.1"/>
<text transform="matrix(1 0 0 1 1361.059 226.5997)" font-family="'MyriadPro-Regular'" font-size="12">MUX</text>
<rect x="1344.7" y="298.4" fill="none" stroke="#000000" stroke-miterlimit="10" width="57" height="70.7"/>
<text transform="matrix(1 0 0 1 1361.0593 337.2232)" font-family="'MyriadPro-Regular'" font-size="12">MUX</text>
<line fill="none" stroke="#000000" stroke-miterlimit="10" x1="1298.2" y1="192.6" x2="1344.7" y2="192.6"/>
<text transform="matrix(1 0 0 1 1286.9514 196.8062)" font-family="'MyriadPro-Regular'" font-size="12">1</text>
<line fill="none" stroke="#000000" stroke-miterlimit="10" x1="1298.2" y1="305.3" x2="1344.7" y2="305.3"/>
<text transform="matrix(1 0 0 1 1284.1199 307.3515)" font-family="'MyriadPro-Regular'" font-size="12">Nr</text>
<line fill="none" stroke="#000000" stroke-miterlimit="10" x1="1298.2" y1="208.1" x2="1344.7" y2="208.1"/>
<text transform="matrix(1 0 0 1 1286.6041 212.2734)" font-family="'MyriadPro-Regular'" font-size="12">X</text>
<line fill="none" stroke="#000000" stroke-miterlimit="10" x1="1298.2" y1="315.8" x2="1344.7" y2="315.8"/>
<text transform="matrix(1 0 0 1 1284.1191 319.9865)" font-family="'MyriadPro-Regular'" font-size="12">Nr</text>
<line fill="none" stroke="#000000" stroke-miterlimit="10" x1="1298.2" y1="219.9" x2="1344.7" y2="219.9"/>
<text transform="matrix(1 0 0 1 1286.7114 224.0731)" font-family="'MyriadPro-Regular'" font-size="12">Z</text>
<line fill="none" stroke="#000000" stroke-miterlimit="10" x1="1298.2" y1="330.3" x2="1344.7" y2="330.3"/>
<text transform="matrix(1 0 0 1 1286.8367 332.9463)" font-family="'MyriadPro-Regular'" font-size="12">P</text>
<line fill="none" stroke="#000000" stroke-miterlimit="10" x1="1298.2" y1="233.4" x2="1344.7" y2="233.4"/>
<text transform="matrix(1 0 0 1 1286.8361 237.5584)" font-family="'MyriadPro-Regular'" font-size="12">P</text>
<line fill="none" stroke="#000000" stroke-miterlimit="10" x1="1298.2" y1="341.8" x2="1344.7" y2="341.8"/>
<text transform="matrix(1 0 0 1 1286.8374 343.6528)" font-family="'MyriadPro-Regular'" font-size="12">P</text>
<line fill="none" stroke="#000000" stroke-miterlimit="10" x1="1298.2" y1="359" x2="1344.7" y2="359"/>
<text transform="matrix(1 0 0 1 1286.7098 360.8117)" font-family="'MyriadPro-Regular'" font-size="12">Z</text>
<line fill="none" stroke="#000000" stroke-miterlimit="10" x1="1298.2" y1="246.6" x2="1344.7" y2="246.6"/>
<text transform="matrix(1 0 0 1 1286.9503 250.8323)" font-family="'MyriadPro-Regular'" font-size="12">1</text>
<text transform="matrix(1 0 0 1 1308.1305 166.5802)" font-family="'MyriadPro-Regular'" font-size="12">PROD_MUX_CTRL</text>
<line fill="none" stroke="#000000" stroke-miterlimit="10" x1="1376" y1="172.2" x2="1376" y2="188.6"/>
<text transform="matrix(1 0 0 1 1310.797 276.4073)" font-family="'MyriadPro-Regular'" font-size="12">PROD_MUX_CTRL</text>
<line fill="none" stroke="#000000" stroke-miterlimit="10" x1="1378.7" y1="282" x2="1378.7" y2="298.5"/>
<line fill="none" stroke="#000000" stroke-miterlimit="10" x1="1110.4" y1="1008.1" x2="1143" y2="1008.1"/>
<text transform="matrix(1 0 0 1 1148.1561 1011.1643)" font-family="'MyriadPro-Regular'" font-size="12">LOOP_FINISHED</text>
<line fill="none" stroke="#000000" stroke-miterlimit="10" x1="817.7" y1="963.2" x2="1014.3" y2="963.2"/>
<line fill="none" stroke="#000000" stroke-miterlimit="10" x1="817.7" y1="943.3" x2="817.7" y2="963.2"/>
<line fill="none" stroke="#000000" stroke-miterlimit="10" x1="817.7" y1="943.3" x2="838.2" y2="943.3"/>
<line fill="none" stroke="#000000" stroke-miterlimit="10" x1="896" y1="935.5" x2="910.3" y2="935.5"/>
<line fill="none" stroke="#000000" stroke-miterlimit="10" x1="820.3" y1="881.9" x2="1052" y2="881.9"/>
<line fill="none" stroke="#000000" stroke-miterlimit="10" x1="820.3" y1="881.9" x2="820.3" y2="926.7"/>
<line fill="none" stroke="#000000" stroke-miterlimit="10" x1="817.7" y1="926.7" x2="838.2" y2="926.7"/>
<line fill="none" stroke="#000000" stroke-miterlimit="10" x1="1034.1" y1="855.5" x2="1052" y2="855.5"/>
<line fill="none" stroke="#000000" stroke-miterlimit="10" x1="1052" y1="854.1" x2="1052" y2="883.6"/>
<text transform="matrix(1 0 0 1 621.6066 1008.1136)" font-family="'MyriadPro-Regular'" font-size="12">LOOP_INCREMENT</text>
<line fill="none" stroke="#000000" stroke-miterlimit="10" x1="841.7" y1="1002.9" x2="841.7" y2="1017.3"/>
<text transform="matrix(1 0 0 1 874.7524 156.1845)" font-family="'MyriadPro-Regular'" font-size="12">P_MUX_CTRL</text>
<line fill="none" stroke="#000000" stroke-miterlimit="10" x1="908.8" y1="157.3" x2="908.8" y2="173.7"/>
<text transform="matrix(1 0 0 1 870.8776 69.2515)" font-family="'MyriadPro-Regular'" font-size="12">Z_MUX_CTRL</text>
<line fill="none" stroke="#000000" stroke-miterlimit="10" x1="905" y1="70.4" x2="905" y2="86.8"/>
<text transform="matrix(1 0 0 1 625.9141 904.3005)" font-family="'MyriadPro-Regular'" font-size="12">LOOP_INITIALIZE</text>
<line fill="none" stroke="#000000" stroke-miterlimit="10" x1="868.5" y1="901.9" x2="868.5" y2="918.3"/>
<rect x="873" y="598" fill="none" stroke="#000000" stroke-miterlimit="10" width="170.3" height="160.9"/>
<text transform="matrix(1 0 0 1 891.0226 689.0765)" font-family="'MyriadPro-Regular'" font-size="12">MOD_EXP_STATEMACHINE</text>
<text transform="matrix(1 0 0 1 1081.9944 614.8652)" font-family="'MyriadPro-Regular'" font-size="12">PROD_MUX_CTRL</text>
<text transform="matrix(1 0 0 1 1082.9133 650.2064)" font-family="'MyriadPro-Regular'" font-size="12">Z_MUX_CTRL</text>
<text transform="matrix(1 0 0 1 1083.0391 682.2955)" font-family="'MyriadPro-Regular'" font-size="12">P_MUX_CTRL</text>
<text transform="matrix(1 0 0 1 1080.1586 711.9998)" font-family="'MyriadPro-Regular'" font-size="12">LOOP_INCREMENT</text>
<text transform="matrix(1 0 0 1 1084.4658 745.5151)" font-family="'MyriadPro-Regular'" font-size="12">LOOP_INITIALIZE</text>
<line fill="none" stroke="#000000" stroke-miterlimit="10" x1="1044.3" y1="610.9" x2="1071.9" y2="610.9"/>
<line fill="none" stroke="#000000" stroke-miterlimit="10" x1="1044.3" y1="644.2" x2="1071.9" y2="644.2"/>
<line fill="none" stroke="#000000" stroke-miterlimit="10" x1="1044.3" y1="712" x2="1071.9" y2="712"/>
<line fill="none" stroke="#000000" stroke-miterlimit="10" x1="1044.3" y1="738" x2="1071.9" y2="738"/>
<line fill="none" stroke="#000000" stroke-miterlimit="10" x1="1044.3" y1="682.3" x2="1071.9" y2="682.3"/>
<line fill="none" stroke="#000000" stroke-miterlimit="10" x1="845.4" y1="610.9" x2="873" y2="610.9"/>
<text transform="matrix(1 0 0 1 834.0923 614.8645)" font-family="'MyriadPro-Regular'" font-size="12">ei</text>
<text transform="matrix(1 0 0 1 760.6517 644.1773)" font-family="'MyriadPro-Regular'" font-size="12">LOOP_FINISHED</text>
<line fill="none" stroke="#000000" stroke-miterlimit="10" x1="845.4" y1="640.5" x2="873" y2="640.5"/>
<line fill="#FFFFFF" stroke="#000000" stroke-miterlimit="10" x1="845.4" y1="672" x2="873" y2="672"/>
<text transform="matrix(1 0 0 1 799.404 674.551)" font-family="'MyriadPro-Regular'" font-size="12">S_READY</text>
<rect x="749.1" y="817" fill="none" stroke="#000000" stroke-miterlimit="10" width="378.1" height="372.6"/>
<line fill="none" stroke="#000000" stroke-miterlimit="10" x1="718" y1="1002.9" x2="841.7" y2="1002.9"/>
<line fill="none" stroke="#000000" stroke-miterlimit="10" x1="718" y1="901.9" x2="870.2" y2="901.9"/>
<text transform="matrix(1 0 0 1 887.1242 809)" font-family="'MyriadPro-Regular'" font-size="12">LOOP_CONTROLLER</text>
<rect x="878.5" y="242.4" fill="#FFFFFF" stroke="#000000" stroke-miterlimit="10" width="154.1" height="91.3"/>
<line fill="none" stroke="#000000" stroke-miterlimit="10" x1="607.5" y1="377.3" x2="741" y2="377.3"/>
<text transform="matrix(1 0 0 1 908.2722 288.0515)" font-family="'MyriadPro-Regular'" font-size="12">LOOP_CONTROLLER</text>
<rect x="1020.4" y="1132" fill="none" stroke="#000000" stroke-miterlimit="10" width="57" height="34.6"/>
<text transform="matrix(1 0 0 1 1158.2664 1149.3118)" font-family="'MyriadPro-Regular'" font-size="12">ei</text>
<text transform="matrix(1 0 0 1 1036.741 1149.312)" font-family="'MyriadPro-Regular'" font-size="12">MUX</text>
<line fill="none" stroke="#000000" stroke-miterlimit="10" x1="1080.2" y1="1149.3" x2="1153.6" y2="1149.3"/>
<line fill="none" stroke="#000000" stroke-miterlimit="10" x1="986.4" y1="1149.3" x2="1020.2" y2="1149.3"/>
<text transform="matrix(1 0 0 1 975.0479 1154.0199)" font-family="'MyriadPro-Regular'" font-size="12">E</text>
<line fill="none" stroke="#000000" stroke-miterlimit="10" x1="843.1" y1="252.3" x2="876.9" y2="252.3"/>
<text transform="matrix(1 0 0 1 831.7521 257.0537)" font-family="'MyriadPro-Regular'" font-size="12">E</text>
<line fill="none" stroke="#000000" stroke-miterlimit="10" x1="794.1" y1="901.9" x2="794.1" y2="989"/>
<line fill="none" stroke="#000000" stroke-miterlimit="10" x1="794.1" y1="989" x2="855.8" y2="989"/>
<line fill="none" stroke="#000000" stroke-miterlimit="10" x1="855.8" y1="989" x2="855.8" y2="1017.3"/>
</svg>
